# xmcd
#
# Track frame offsets: 
#        150
#        16124
#        25364
#        42701
#        60691
#        77379
#        98311
#        111768
#        132771
#        150188
#        167385
#        176760
#        189755
#        204408
#        214923
#        228115
#        244371
#        258343
#        273679
#        284713
#        293377
#
# Disc length: 4053 seconds
#
# Revision: 0
# Processed by: cddbd v1.5.2PL0 Copyright (c) Steve Scherf et al.
# Submitted via: ExactAudioCopy v0.99pb4
#
DISCID=150fd315
DTITLE=Various Artist - De Topcollectie Kerstklassiekers - CD 3
DYEAR=2012
DGENRE=Chanson
TTITLE0=Susan Boyle - Amazing Grace
TTITLE1=Bing Crosby - Let It Snow! Let It Snow! Let It Snow!
TTITLE2=Celtic Woman - O Come All Ye Faithful
TTITLE3=Il Divo - O Holy Night
TTITLE4=Sinéad O'Connor - Silent Night
TTITLE5=Bart Peeters - Vrolijk Kerstfeest
TTITLE6=Adamo - Tombe La Neige
TTITLE7=Jan De Wilde - De Eerste Sneeuw
TTITLE8=Cliff Richard - Mistletoe and Wine
TTITLE9=Trijntje Oosterhuis Feat. Candy Dulfer - Merry Christmas Baby
TTITLE10=Jackson 5 - Christmas Won't Be The Same This Year
TTITLE11=Matt Monro - When A Child Is Born
TTITLE12=The Cats - Silent Night
TTITLE13=The Beach Boys - Santa Claus Is Comin' To Town
TTITLE14=Glen Campbell - Christmas Day
TTITLE15=Louis Neefs - Susa Nina
TTITLE16=André Hazes - Eenzame Kerst
TTITLE17=Amy Grant - Sleigh Ride
TTITLE18=Lou Rawls - Have Yourself A Merry Little Christmas
TTITLE19=Vic Damone - Deck The Halls
TTITLE20=Dean Martin - Baby, It's Cold Outside
EXTD=
EXTT0=
EXTT1=
EXTT2=
EXTT3=
EXTT4=
EXTT5=
EXTT6=
EXTT7=
EXTT8=
EXTT9=
EXTT10=
EXTT11=
EXTT12=
EXTT13=
EXTT14=
EXTT15=
EXTT16=
EXTT17=
EXTT18=
EXTT19=
EXTT20=
PLAYORDER=
